<?xml version="1.0" encoding="utf-8"?>
<!-- Generator: Adobe Illustrator 27.5.0, SVG Export Plug-In . SVG Version: 6.00 Build 0)  -->
<svg version="1.1" id="Layer_1" xmlns="http://www.w3.org/2000/svg" xmlns:xlink="http://www.w3.org/1999/xlink" x="0px" y="0px"
	 viewBox="0 0 450 450" style="enable-background:new 0 0 450 450;" xml:space="preserve">
<g>
	<g>
		<polygon style="fill:#123549;" points="411.596,197.635 274.146,127.651 247.257,102.754 247.257,84.316 411.596,179.194 
			411.841,184.527 411.841,191.865 		"/>
		<polygon style="fill:#164058;" points="400.304,217.191 303.211,178.867 235.957,122.305 247.257,102.754 411.596,197.635 
			410.042,200.847 401.231,216.093 		"/>
		<polygon style="fill:#285E79;" points="90.835,206.095 235.957,122.305 400.304,217.191 213.994,325.062 200.2,317.26 
			74.475,229.12 		"/>
		<path style="opacity:0.3;fill:#F6F6F6;" d="M295.449,168.742l61.659,35.598l-48.747,28.142l-61.655-35.602L295.449,168.742z
			 M295.449,166.539l-52.566,30.342l65.478,37.806l52.554-30.346L295.449,166.539z"/>
		<polygon style="opacity:0.3;fill:#F6F6F6;" points="290.568,163.723 238.014,194.064 231.88,190.526 284.439,160.185 		"/>
		<polygon style="opacity:0.3;fill:#F6F6F6;" points="326.541,211.457 303.913,224.525 308.492,227.169 331.12,214.102 		"/>
		<polygon style="opacity:0.3;fill:#F6F6F6;" points="338.654,199.223 299.367,221.896 294.784,219.256 334.063,196.574 		"/>
		<polygon style="opacity:0.3;fill:#F6F6F6;" points="329.48,193.926 290.205,216.607 285.61,213.959 324.901,191.286 		"/>
		<path style="fill:#F6F6F6;" d="M93.876,217.069l77.337,44.653l-0.008,0.445l35.459,20.474h50.142l35.48-20.486l-0.008-28.938
			l-35.463-20.482h-0.767l-77.334-44.65l-0.767,0.433l76.559,44.221l-10.929-0.012l-51.285-29.591l-0.755,0.445l50.493,29.158
			l-17.25-0.004l-24.535-14.165l-0.767,0.441l3.909,2.261l-4.575-0.004v0.637l2.718,0.004l-49.094,28.338l0.013-1.575l-1.094-0.008
			v2.648h4.599v-0.62h-2.726l49.077-28.338l0.013,1.567l1.085-0.004l-0.008-2.64l19.845,11.459h-16.577l-35.459,20.47v9.566
			l-19.85-11.459l-3.926-2.253l-0.763,0.445l24.539,14.16v9.957l-47.825-27.603l4.526,0.008v-0.636h-2.722l67.894-39.206
			l-0.012,1.58l1.098,0.008l-0.004-2.652l-4.583,0.004v0.628h2.726l-67.886,39.197v-1.579h-1.09l-0.012,2.612l-2.608-1.514
			l-0.779,0.445l51.277,29.599l0.008,6.321l-73.032-42.156l4.571,0.004l-0.012-0.636h-2.714l80.341-46.384v1.571l1.098,0.008
			l-0.016-2.657h-4.583v0.625l2.738,0.012l-80.345,46.372l-0.008-1.567h-1.089l0.012,2.636l-3.543-2.04L93.876,217.069z
			 M244.209,214l6.64,3.828l-17.246-0.004l-6.64-3.84L244.209,214z M215.826,225.492l-22.514,13.002v17.046l-11.117-6.411
			l0.008-13.283l29.016-16.752h23.016l11.108,6.408L215.826,225.492z M246.759,226.761l21.237,12.259v17.328l-21.237,12.263h-30.032
			l-21.229-12.259V239.02l21.229-12.267L246.759,226.761z M193.312,256.433v0.441l22.51,12.997h31.827l22.527-13.002v-18.377
			L247.657,225.5l-0.763-0.008l-11.112-6.403h16.475l29.015,16.748l0.008,23.694l-29.023,16.756h-41.05l-29.003-16.756v-9.513
			L193.312,256.433z M173.397,233.727L207.57,214l17.85-0.008l6.648,3.836l-21.755-0.004l-30.285,17.491v12.549l-6.644-3.832
			L173.397,233.727z M173.384,244.925l6.644,3.832v9.965l-6.644-3.84V244.925z M173.397,255.772l6.632,3.84v0.437l30.285,17.495
			h42.85l30.297-17.495l-0.008-24.734l-30.285-17.491l-0.775,0.004l-6.631-3.832h10.153l34.194,19.727l-0.008,27.922l-34.186,19.731
			h-48.351l-34.178-19.731L173.397,255.772z"/>
		<g>
			<polygon style="fill:#9F9891;" points="400.524,217.681 213.814,325.474 202.212,318.777 202.212,299.822 213.814,279.723 
				224.759,273.406 224.771,274.022 214.047,280.217 202.751,299.773 202.751,318.214 214.047,324.723 400.304,217.191 
				411.596,197.635 411.596,179.194 400.304,172.676 389.58,178.867 389.58,178.251 400.524,171.925 412.127,178.63 
				412.127,197.582 			"/>
			<polygon style="fill:#CDCDCD;" points="202.212,318.777 37.873,223.892 37.882,204.94 190.573,283.486 202.212,299.822 			"/>
			<polygon style="fill:#DCDAD8;" points="202.212,299.822 37.882,204.94 49.475,184.842 196.837,264.244 213.814,279.723 			"/>
			<polygon style="fill:#F0EBE5;" points="213.814,279.723 49.475,184.842 60.425,178.516 224.759,273.406 			"/>
			<g>
				<polygon style="fill:#B1ABA3;" points="389.58,178.867 225.236,83.986 225.236,83.366 236.512,86.773 389.58,178.251 				"/>
				<polygon style="fill:#F0EBE5;" points="389.58,178.251 225.236,83.366 236.186,77.048 400.524,171.925 				"/>
			</g>
		</g>
	</g>
	<g>
		<path style="opacity:0.3;" d="M117.553,200.19l-61.41-35.463l52.803-30.481l61.418,35.455L117.553,200.19z"/>
		
			<rect x="62.774" y="126.18" transform="matrix(0.866 -0.5001 0.5001 0.866 -59.8057 65.1002)" style="fill:#B1ABA3;" width="57.573" height="35.911"/>
		<polygon style="fill:#9F9891;" points="107.51,114.192 57.653,142.98 57.653,114.017 107.51,85.23 		"/>
		<polygon style="fill:#9F9891;" points="114.064,115.107 64.203,143.89 64.203,121.2 114.064,92.409 		"/>
		
			<rect x="70.45" y="126.794" transform="matrix(0.866 -0.5 0.5 0.866 -60.2086 69.3135)" style="fill:#B1ABA3;" width="57.568" height="40.424"/>
		<polygon style="fill:#E2DDD9;" points="150.327,159.389 100.471,188.171 84.408,178.904 134.26,150.121 		"/>
		<polygon style="fill:#9F9891;" points="120.12,116.678 70.268,145.465 70.268,128.57 120.12,99.783 		"/>
		
			<rect x="74.192" y="128.986" transform="matrix(0.866 -0.5001 0.5001 0.866 -58.4893 70.8758)" style="fill:#B1ABA3;" width="57.568" height="31.131"/>
		<polygon style="fill:#E2DDD9;" points="147.614,150.525 97.757,179.312 85.832,172.428 135.685,143.636 		"/>
		<polygon style="fill:#9F9891;" points="126.193,118.082 76.336,146.872 76.336,135.781 126.193,106.998 		"/>
		<polygon style="fill:#B1ABA3;" points="138.362,139.16 88.497,167.938 76.336,146.872 126.193,118.082 		"/>
		<polygon style="fill:#E2DDD9;" points="145.1,143.049 95.239,171.836 88.497,167.938 138.362,139.16 		"/>
		<polygon style="fill:#9F9891;" points="132.073,119.31 82.209,148.097 82.209,142.58 132.073,113.788 		"/>
		
			<rect x="82.685" y="132.542" transform="matrix(0.866 -0.5001 0.5001 0.866 -55.6731 74.6655)" style="fill:#B1ABA3;" width="57.577" height="17.33"/>
		<polygon style="fill:#E2DDD9;" points="142.586,135.389 92.733,164.172 90.876,163.107 140.737,134.316 		"/>
		<polygon style="fill:#E2DDD9;" points="140.851,113.209 90.995,141.996 84.963,138.515 134.82,109.732 		"/>
		
			<rect x="89.269" y="127.032" transform="matrix(0.866 -0.5001 0.5001 0.866 -49.8382 76.6342)" style="fill:#B1ABA3;" width="57.572" height="8.534"/>
		<polygon style="fill:#9F9891;" points="145.116,127.566 95.259,156.353 95.259,149.391 145.116,120.6 		"/>
		<polygon style="fill:#E2DDD9;" points="143.214,107.231 93.349,136.013 82.498,129.745 132.347,100.962 		"/>
		<polygon style="fill:#B1ABA3;" points="150.89,120.526 101.034,149.313 93.349,136.013 143.214,107.231 		"/>
		<polygon style="fill:#9F9891;" points="150.89,133.063 101.034,161.845 101.034,149.313 150.89,120.526 		"/>
		<polygon style="fill:#E2DDD9;" points="145.728,100.872 95.871,129.655 79.98,120.481 129.837,91.699 		"/>
		<polygon style="fill:#B1ABA3;" points="156.967,120.33 107.102,149.117 95.871,129.655 145.728,100.872 		"/>
		<polygon style="fill:#9F9891;" points="156.967,138.67 107.102,167.457 107.102,149.117 156.967,120.33 		"/>
		<polygon style="fill:#E2DDD9;" points="148.242,94.351 98.385,123.134 77.471,111.063 127.335,82.284 		"/>
		
			<rect x="101.92" y="106.763" transform="matrix(0.866 -0.5 0.5 0.866 -43.2615 81.6363)" style="fill:#B1ABA3;" width="57.567" height="29.563"/>
		<polygon style="fill:#9F9891;" points="163.027,144.106 113.166,172.884 113.166,148.738 163.027,119.955 		"/>
		<polygon style="fill:#9F9891;" points="169.569,150.745 119.712,179.533 118.802,164.764 119.712,149.121 131.877,133.356 
			169.577,120.338 		"/>
		<polygon style="fill:#B1ABA3;" points="169.577,120.338 119.712,149.121 110.273,133.883 101.091,116.866 109.138,102.737 
			150.956,88.083 		"/>
		<polygon style="fill:#E2DDD9;" points="150.956,88.083 101.091,116.866 94.329,114.111 74.765,101.664 124.621,72.882 		"/>
		<polygon style="fill:#D4CDC3;" points="101.099,190.29 83.78,180.287 62.681,143.738 62.689,119.6 77.471,111.063 98.385,123.134 
			113.166,148.738 113.166,172.884 98.385,181.422 85.2,173.811 68.745,145.314 68.745,126.974 79.98,120.481 95.871,129.655 
			107.102,149.117 107.102,167.457 95.871,173.949 87.873,169.33 74.818,146.722 74.818,134.177 82.498,129.745 93.349,136.013 
			101.034,149.313 101.034,161.845 93.349,166.282 90.244,164.49 80.69,147.942 80.69,140.976 84.963,138.515 90.995,141.996 
			95.259,149.391 95.259,156.353 91.215,158.691 90.146,156.83 93.745,154.749 93.745,149.244 90.366,143.391 85.588,140.629 
			82.209,142.58 82.209,148.097 90.876,163.107 92.733,164.172 99.524,160.25 99.524,149.162 92.725,137.401 83.122,131.859 
			76.336,135.781 76.336,146.872 88.497,167.938 95.239,171.836 105.592,165.857 105.592,148.966 95.239,131.039 80.609,122.595 
			70.268,128.57 70.268,145.465 85.832,172.428 97.757,179.312 111.652,171.289 111.652,148.591 97.757,124.521 78.099,113.176 
			64.203,121.2 64.203,143.89 84.408,178.904 100.471,188.171 118.198,177.932 118.198,148.978 100.471,118.257 75.381,103.778 
			57.653,114.017 57.653,142.98 75.61,174.08 74.536,174.692 56.144,142.828 56.144,112.417 74.765,101.664 101.091,116.866 
			119.712,149.121 119.712,179.533 		"/>
	</g>
	<g>
		<polygon style="opacity:0.3;" points="83.984,267.578 142.782,301.47 143.94,302.152 143.855,302.319 145.948,303.547 
			147.021,304.155 146.475,305.347 144.634,306.429 142.537,306.739 141.488,306.122 139.382,304.906 139.068,304.951 
			137.909,304.282 79.123,270.406 72.492,263.816 		"/>
		<g>
			<polygon style="fill:#7F6A66;" points="75.116,262.677 75.622,262.106 72.492,261.281 			"/>
			<polygon style="fill:#3C312E;" points="74.777,263.546 75.042,262.844 72.492,261.281 			"/>
			<polygon style="fill:#64534D;" points="74.777,262.967 75.071,262.967 75.116,262.375 72.492,261.281 			"/>
			<polygon style="fill:#EBC188;" points="80.111,268.884 82.857,266.811 82.923,264.015 80.009,263.526 75.116,262.375 
				74.777,262.967 78.462,266.264 			"/>
			<polygon style="fill:#C39A5A;" points="80.111,268.884 80.111,266.966 74.777,262.967 74.777,263.546 			"/>
			<polygon style="fill:#F3E2B8;" points="81.286,264.966 82.923,264.015 75.622,262.106 75.116,262.375 			"/>
		</g>
		<g>
			<polygon style="fill:#745853;" points="131.963,296.904 133.134,294.904 134.787,293.945 135.946,294.623 135.946,296.508 
				134.787,298.548 133.134,299.487 131.963,298.822 			"/>
			<polygon style="fill:#F7E577;" points="133.134,294.904 134.787,293.945 82.923,264.015 81.286,264.966 132.914,294.933 			"/>
			<polygon style="fill:#DFB95C;" points="131.963,296.904 133.134,294.904 81.286,264.966 80.111,266.966 131.759,297.018 			"/>
			<polygon style="fill:#C8904A;" points="131.963,298.822 131.963,296.904 80.111,266.966 80.111,268.884 			"/>
		</g>
		<g>
			<polygon style="fill:#D4CDC3;" points="138.86,300.903 140.023,298.875 141.668,297.912 142.823,298.601 142.823,300.511 
				141.668,302.511 140.023,303.453 138.86,302.792 			"/>
			<polygon style="fill:#E2DDD9;" points="140.023,298.875 141.668,297.912 134.787,293.945 133.134,294.871 139.802,298.908 			"/>
			<polygon style="fill:#CDCDCD;" points="138.86,300.903 140.023,298.875 133.134,294.871 131.963,296.904 138.647,300.984 			"/>
			<polygon style="fill:#9F9891;" points="138.86,302.792 138.86,300.903 131.963,296.904 131.963,298.822 			"/>
		</g>
		<g>
			<polygon style="fill:#BE685C;" points="142.345,302.797 143.426,300.944 144.936,300.075 146.014,300.695 146.014,302.433 
				144.936,304.29 143.426,305.172 142.345,304.555 			"/>
			<polygon style="fill:#F8A18D;" points="143.426,300.944 144.936,300.075 141.762,298.246 140.251,299.128 143.223,300.977 			"/>
			<polygon style="fill:#D1786E;" points="142.345,302.797 143.426,300.944 140.251,299.128 139.186,300.984 142.161,302.882 			"/>
			<polygon style="fill:#A2475B;" points="142.345,304.555 142.345,302.797 139.186,300.984 139.186,302.719 			"/>
		</g>
		<g>
			<polygon style="fill:#F65A51;" points="127.201,291.484 128.841,290.517 126.327,289.064 124.67,289.999 126.988,291.509 			"/>
			<polygon style="fill:#C43F2F;" points="126.054,293.492 127.201,291.484 124.67,289.999 123.499,292.035 125.838,293.594 			"/>
			<polygon style="fill:#861B13;" points="126.054,295.39 126.054,293.492 123.499,292.035 123.499,293.921 			"/>
		</g>
	</g>
	<g>
		<path style="opacity:0.3;" d="M212.198,377.118l-38.262-22.09l141.91-81.986l38.242,22.082L212.198,377.118z"/>
		<g>
			<polygon style="fill:#D4CDC3;" points="212.198,372.535 212.186,376.315 175.364,355.049 175.364,351.262 			"/>
			<polygon style="fill:#9F9891;" points="352.668,291.358 352.668,295.125 212.186,376.315 212.198,372.535 			"/>
			<polygon style="fill:#E2DDD9;" points="352.668,291.358 315.846,270.1 175.364,351.262 212.198,372.535 			"/>
		</g>
		<g>
			<polygon style="fill:#D4CDC3;" points="195.417,332.942 192.145,331.065 192.145,361.007 195.417,362.897 			"/>
			<polygon style="fill:#D4CDC3;" points="335.883,251.76 332.622,249.892 192.145,331.065 195.417,332.942 			"/>
			<polygon style="fill:#9F9891;" points="335.883,251.76 335.883,281.702 195.417,362.897 195.417,332.942 			"/>
		</g>
		<g>
			<polygon style="fill:#D4CDC3;" points="212.198,338.855 212.186,342.63 175.364,321.365 175.364,317.578 			"/>
			<polygon style="fill:#9F9891;" points="352.668,257.682 352.668,261.444 212.186,342.63 212.198,338.855 			"/>
			<polygon style="fill:#E2DDD9;" points="352.668,257.682 315.846,236.417 175.364,317.578 212.198,338.855 			"/>
		</g>
	</g>
	<g>
		<polygon style="fill:#D5BA90;" points="153.673,215.183 153.661,216.363 142.231,209.764 142.231,208.584 		"/>
		<polygon style="fill:#A88552;" points="262.189,152.504 262.181,153.672 153.661,216.363 153.673,215.183 		"/>
		<polygon style="fill:#EBCBA0;" points="262.189,152.504 250.755,145.91 142.231,208.584 153.673,215.183 		"/>
		<g>
			<polygon style="fill:#7F6A66;" points="145.696,206.581 149.842,208.976 150.523,208.584 146.369,206.193 			"/>
			<polygon style="fill:#7F6A66;" points="152.437,202.688 156.587,205.083 157.269,204.695 153.127,202.3 			"/>
			<polygon style="fill:#7F6A66;" points="159.183,198.798 163.333,201.186 164.011,200.794 159.869,198.403 			"/>
			<polygon style="fill:#7F6A66;" points="165.937,194.897 170.087,197.293 170.756,196.905 166.614,194.509 			"/>
			<polygon style="fill:#7F6A66;" points="172.683,191.008 176.829,193.395 177.498,193.003 173.36,190.616 			"/>
			<polygon style="fill:#7F6A66;" points="179.428,187.107 183.57,189.498 184.244,189.11 180.106,186.715 			"/>
			<polygon style="fill:#7F6A66;" points="186.178,183.209 190.32,185.609 190.998,185.217 186.852,182.822 			"/>
			<polygon style="fill:#7F6A66;" points="192.92,179.32 197.066,181.708 197.743,181.32 193.605,178.928 			"/>
			<polygon style="fill:#7F6A66;" points="199.674,175.423 203.82,177.818 204.498,177.426 200.351,175.031 			"/>
			<polygon style="fill:#7F6A66;" points="206.419,171.525 210.566,173.925 211.239,173.529 207.093,171.142 			"/>
			<polygon style="fill:#7F6A66;" points="213.161,167.628 217.312,170.024 217.981,169.636 213.847,167.245 			"/>
			<polygon style="fill:#7F6A66;" points="219.911,163.735 224.066,166.135 224.735,165.735 220.585,163.352 			"/>
			<polygon style="fill:#7F6A66;" points="226.657,159.838 230.807,162.237 231.481,161.842 227.33,159.45 			"/>
			<polygon style="fill:#7F6A66;" points="233.399,155.944 237.545,158.348 238.222,157.952 234.08,155.557 			"/>
			<polygon style="fill:#7F6A66;" points="240.148,152.056 244.303,154.443 244.976,154.051 240.826,151.659 			"/>
			<polygon style="fill:#7F6A66;" points="247.572,147.766 246.894,148.154 251.044,150.554 251.722,150.162 			"/>
		</g>
	</g>
	<g>
		<polygon style="opacity:0.3;" points="90.958,288.746 149.756,322.646 150.919,323.323 150.829,323.491 152.923,324.715 
			153.996,325.327 153.445,326.519 151.601,327.596 149.515,327.902 148.462,327.294 146.357,326.078 146.034,326.127 
			144.887,325.458 86.102,291.582 79.454,284.992 		"/>
		<g>
			<polygon style="fill:#7F6A66;" points="82.09,283.853 82.596,283.273 79.454,282.453 			"/>
			<polygon style="fill:#3C312E;" points="81.751,284.714 82.013,284.02 79.454,282.453 			"/>
			<polygon style="fill:#64534D;" points="81.751,284.143 82.045,284.143 82.09,283.551 79.454,282.453 			"/>
			<polygon style="fill:#EBC188;" points="87.085,290.06 89.832,287.983 89.897,285.183 86.983,284.698 82.09,283.551 
				81.751,284.143 85.433,287.432 			"/>
			<polygon style="fill:#C39A5A;" points="87.085,290.06 87.085,288.134 81.751,284.143 81.751,284.714 			"/>
			<polygon style="fill:#F3E2B8;" points="88.252,286.142 89.897,285.183 82.596,283.273 82.09,283.551 			"/>
		</g>
		<g>
			<polygon style="fill:#745853;" points="138.938,318.076 140.113,316.076 141.762,315.121 142.92,315.794 142.92,317.676 
				141.762,319.72 140.113,320.663 138.938,319.994 			"/>
			<polygon style="fill:#9F9281;" points="140.113,316.076 141.762,315.121 89.897,285.183 88.252,286.142 139.88,316.1 			"/>
			<polygon style="fill:#6F6253;" points="138.938,318.076 140.113,316.076 88.252,286.142 87.085,288.134 138.729,318.186 			"/>
			<polygon style="fill:#5A4136;" points="138.938,319.994 138.938,318.076 87.085,288.134 87.085,290.06 			"/>
		</g>
		<g>
			<polygon style="fill:#D4CDC3;" points="145.834,322.075 146.997,320.051 148.646,319.088 149.801,319.777 149.801,321.679 
				148.646,323.687 146.997,324.626 145.834,323.96 			"/>
			<polygon style="fill:#E2DDD9;" points="146.997,320.051 148.646,319.088 141.762,315.121 140.113,316.047 146.789,320.079 			"/>
			<polygon style="fill:#CDCDCD;" points="145.834,322.075 146.997,320.051 140.113,316.047 138.938,318.076 145.626,322.156 			"/>
			<polygon style="fill:#9F9891;" points="145.834,323.96 145.834,322.075 138.938,318.076 138.938,319.994 			"/>
		</g>
		<g>
			<polygon style="fill:#BE685C;" points="149.32,323.968 150.4,322.12 151.915,321.247 152.988,321.871 152.988,323.601 
				151.915,325.462 150.4,326.348 149.32,325.723 			"/>
			<polygon style="fill:#F8A18D;" points="150.4,322.12 151.915,321.247 148.74,319.414 147.222,320.3 150.197,322.148 			"/>
			<polygon style="fill:#D1786E;" points="149.32,323.968 150.4,322.12 147.222,320.3 146.165,322.156 149.131,324.054 			"/>
			<polygon style="fill:#A2475B;" points="149.32,325.723 149.32,323.968 146.165,322.156 146.165,323.891 			"/>
		</g>
		<g>
			<polygon style="fill:#F65A51;" points="134.175,312.66 135.815,311.689 133.301,310.236 131.649,311.171 133.975,312.681 			"/>
			<polygon style="fill:#C43F2F;" points="133.024,314.66 134.175,312.66 131.649,311.171 130.486,313.203 132.812,314.77 			"/>
			<polygon style="fill:#861B13;" points="133.024,316.565 133.024,314.66 130.486,313.203 130.486,315.088 			"/>
		</g>
	</g>
	<g>
		<polygon style="opacity:0.3;" points="332.94,210.772 333.006,210.699 333.006,208.078 260.569,187.927 260.569,186.405 
			254.786,183.07 246.617,183.07 244.217,184.458 232.154,177.492 230.664,178.357 229.607,180.181 229.607,181.903 
			240.846,188.392 240.846,191.118 240.846,196.15 246.617,199.48 248.261,199.48 282.129,240.073 285.247,239.2 295.89,243.786 
			287.373,238.608 287.63,238.542 287.63,235.923 256.435,198.529 260.557,196.15 260.557,194.469 330.357,213.877 331.871,212.057 
			341.62,217.387 		"/>
		<g>
			<polygon style="fill:#322826;" points="241.928,186.682 242.98,184.846 244.474,183.989 245.527,184.597 245.527,186.319 
				244.474,188.147 242.98,189.016 241.928,188.4 			"/>
			<polygon style="fill:#7F6A66;" points="230.664,177.733 242.98,184.846 244.474,183.989 232.154,176.871 			"/>
			
				<rect x="235.237" y="175.094" transform="matrix(0.5002 -0.8659 0.8659 0.5002 -39.6734 295.6785)" style="fill:#64534D;" width="2.116" height="14.225"/>
			<polygon style="fill:#50413D;" points="229.607,181.291 241.928,188.4 241.928,186.682 229.607,179.565 			"/>
		</g>
		<g>
			<polygon style="fill:#3C312E;" points="240.846,190.498 240.846,195.53 246.617,198.86 254.786,198.86 260.557,195.53 
				260.569,190.498 254.786,187.482 246.617,187.482 			"/>
			<polygon style="fill:#534540;" points="240.846,185.78 240.846,190.498 246.617,193.836 254.786,193.832 260.557,190.498 
				260.569,185.78 254.786,182.446 246.617,182.454 			"/>
			<polygon style="fill:#3C312E;" points="252.244,186.005 249.167,186.005 247,187.258 247,189.033 249.167,190.29 252.244,190.29 
				254.415,189.033 254.415,187.258 			"/>
		</g>
		<g>
			<polygon style="fill:#9F9891;" points="247.237,195.019 247.237,197.643 282.129,239.452 287.63,237.918 287.63,235.302 
				284.092,234.168 			"/>
			<polygon style="fill:#D4CDC3;" points="254.032,195.019 247.237,195.019 282.129,236.833 287.63,235.302 			"/>
		</g>
		<g>
			<polygon style="fill:#0A0808;" points="295.89,243.174 285.843,237.604 283.92,237.383 283.92,238.016 			"/>
			<polygon style="fill:#534540;" points="295.89,243.174 285.598,236.914 283.92,237.383 			"/>
		</g>
		<g>
			<polygon style="fill:#9F9891;" points="260.569,191.232 260.557,193.848 330.357,213.257 333.006,210.074 333.006,207.458 
				328.207,208.727 279.464,195.019 			"/>
			<polygon style="fill:#D4CDC3;" points="260.569,187.311 260.557,191.232 330.357,210.637 333.006,207.458 			"/>
		</g>
		<g>
			<polygon style="fill:#0A0808;" points="341.62,216.762 331.337,211.139 331.337,210.515 332.149,210.172 			"/>
			<polygon style="fill:#534540;" points="341.62,216.762 331.337,210.515 332.149,209.543 			"/>
		</g>
	</g>
</g>
</svg>
